<svg id="Layer_1" data-name="Layer 1" xmlns="http://www.w3.org/2000/svg" viewBox="0 0 1024 1024"><defs><style>.cls-1{fill:#28527a;}</style></defs><title>Q</title><path class="cls-1" d="M986.36,986.36H36V36h950.4ZM43.33,979H979V43.33H43.33Z"/><path class="cls-1" d="M319.5,647.91V419.45c-14.15,6.57-40,11.95-55.23,13.27V383.1c29-5.33,58.27-21.8,75.76-41h47V647.91Z"/><path class="cls-1" d="M449.27,647.91v-4.25c0-53.2,23.92-96.48,90.06-144.66,43.13-31.52,56.19-42.42,56.19-69.11,0-26.48-12.85-41.37-38.57-41.37-29.94,0-40.73,18.33-44.94,44.92H447.86c4.4-52.71,38.89-96.64,109.09-96.64,78.52,0,105.39,46.75,105.39,92.52,0,44.5-19.15,66-75.39,105.5-37.68,26.46-52.82,43.86-58,57.63H673.65l-8.26,55.46Z"/></svg>