<svg id="Layer_1" data-name="Layer 1" xmlns="http://www.w3.org/2000/svg" viewBox="0 0 1024 1024"><defs><style>.cls-1{fill:#28527a;}</style></defs><title>Q</title><path class="cls-1" d="M987.44,986.36H37.64V36.56h949.8ZM45,979H980.08V43.92H45Z"/><path class="cls-1" d="M395.69,560.29c0-39,27.3-62.89,49.95-73.1-23.46-14.51-37.72-32.82-37.72-63.8,0-51.84,37.93-86.18,106.67-86.18,62.82,0,104.12,32.7,104.12,85.31,0,35.18-18,52.36-38.89,61.29,22,8.17,49.79,33.89,49.79,74.32,0,63-50.35,95.56-120,95.56C447.26,653.69,395.69,620.71,395.69,560.29Zm167.6-3c0-30.26-20.85-44.23-50.61-44.23-33.24,0-50.26,18-50.26,43.82,0,27.13,20.32,45.15,51.43,45.15C542.46,602.06,563.29,588.44,563.29,557.32ZM471,425.68c0,20.65,14.78,34.5,42.74,34.5,27.18,0,41.95-10.43,41.95-34.28,0-23.11-15.24-37.47-42.46-37.47C485.23,388.43,471,401.53,471,425.68Z"/></svg>