<svg id="Layer_1" data-name="Layer 1" xmlns="http://www.w3.org/2000/svg" viewBox="0 0 1024 1024"><defs><style>.cls-1{fill:#28527a;}</style></defs><title>Q</title><path class="cls-1" d="M856.79,733.29H850q0-15.12,1.6-23.84a54.33,54.33,0,0,1,4.1-13.77q2.5-5.05,12.77-18.51,8.07-10.51,11.35-19.8a61.2,61.2,0,0,0,3.27-20.44q0-15.12-8.51-24.34a27.21,27.21,0,0,0-20.79-9.23q-10.63,0-17.73,5.25T829,619.35q0,3.07,5,6.91,7.57,5.88,7.57,12.79a14.08,14.08,0,0,1-4,10.24,13.44,13.44,0,0,1-10,4.09,15.44,15.44,0,0,1-12.17-5.77q-4.95-5.77-5-15.14,0-14.75,13.6-26.48t34.25-11.74q21.16,0,34.95,13.08a42.38,42.38,0,0,1,13.79,31.94,49.23,49.23,0,0,1-4.75,21.81q-3.59,7.3-18.09,20.52-18.84,16.92-22.89,25T856.79,733.29ZM853.71,761a14.87,14.87,0,0,1,10.9,4.49,14.71,14.71,0,0,1,4.49,10.78,15.82,15.82,0,0,1-4.49,11.35,15.11,15.11,0,0,1-21.81.06,15.74,15.74,0,0,1-4.48-11.41,14.63,14.63,0,0,1,4.48-10.84A15,15,0,0,1,853.71,761Z"/><path class="cls-1" d="M331.1,498H25.55V192.49H331.1ZM31.94,491.64H324.71V198.88H31.94Z"/><rect class="cls-1" x="-33.21" y="342.07" width="423.05" height="6.39" transform="translate(-191.91 227.22) rotate(-45)"/><rect class="cls-1" x="127.54" y="296.47" width="97.57" height="97.57"/><path class="cls-1" d="M331.1,831.51H25.55V526H331.1ZM31.94,825.12H324.7V532.36H31.94Z"/><rect class="cls-1" x="175.13" y="467.2" width="6.39" height="423.05" transform="translate(-427.7 324.89) rotate(-45)"/><path class="cls-1" d="M229.43,728.18H128V626.77H229.43Zm-97.57-3.84h93.73V630.61H131.86Z"/><path class="cls-1" d="M665,831.51H359.43V526H665Zm-299.16-6.39H658.58V532.36H365.82Z"/><rect class="cls-1" x="300.67" y="675.54" width="423.05" height="6.39" transform="translate(-329.92 560.98) rotate(-45)"/><rect class="cls-1" x="467.1" y="628.69" width="97.57" height="97.57"/><path class="cls-1" d="M665,498H359.43V192.49H665Zm-299.15-6.4H658.58V198.88H365.82Z"/><rect class="cls-1" x="509" y="133.73" width="6.39" height="423.05" transform="translate(-94.11 463.3) rotate(-45)"/><path class="cls-1" d="M561.7,396H460.29V294.55H561.7Zm-97.57-3.84h93.73V298.39H464.13Z"/><rect class="cls-1" x="796.88" y="296.47" width="97.57" height="97.57"/><path class="cls-1" d="M998.45,498H692.9V192.49H998.45ZM699.3,491.64H992.06V198.88H699.3Z"/><rect class="cls-1" x="634.14" y="342.07" width="423.05" height="6.39" transform="translate(3.55 699.09) rotate(-45)"/><polygon class="cls-1" points="75.21 211.67 83.81 229.1 103.04 231.89 89.13 245.45 92.41 264.6 75.21 255.56 58.02 264.6 61.3 245.45 47.39 231.89 66.62 229.1 75.21 211.67"/><polygon class="cls-1" points="613.69 211.67 622.29 229.1 641.51 231.89 627.6 245.45 630.89 264.6 613.69 255.56 596.49 264.6 599.78 245.45 585.87 231.89 605.09 229.1 613.69 211.67"/><polygon class="cls-1" points="947.98 423.38 956.57 440.81 975.8 443.6 961.89 457.16 965.17 476.31 947.98 467.27 930.78 476.31 934.06 457.16 920.15 443.6 939.38 440.81 947.98 423.38"/><polygon class="cls-1" points="75.78 756.52 84.38 773.94 103.6 776.74 89.69 790.3 92.98 809.45 75.78 800.41 58.58 809.45 61.87 790.3 47.95 776.74 67.18 773.94 75.78 756.52"/><polygon class="cls-1" points="412.21 548.03 420.81 565.46 440.04 568.25 426.13 581.81 429.41 600.96 412.21 591.92 395.02 600.96 398.3 581.81 384.39 568.25 403.61 565.46 412.21 548.03"/></svg>