<svg id="Layer_1" data-name="Layer 1" xmlns="http://www.w3.org/2000/svg" viewBox="0 0 1024 1024"><defs><style>.cls-1{fill:#28527a;}</style></defs><title>Q</title><path class="cls-1" d="M863.6,900.4h-6.94q0-15.42,1.63-24.32A55.35,55.35,0,0,1,862.48,862q2.55-5.16,13-18.89,8.25-10.73,11.59-20.2a62.56,62.56,0,0,0,3.33-20.86q0-15.42-8.68-24.83a27.76,27.76,0,0,0-21.21-9.42q-10.85,0-18.09,5.36t-7.24,11q0,3.14,5.1,7.05,7.73,6,7.72,13A14.36,14.36,0,0,1,844,814.69a13.7,13.7,0,0,1-10.25,4.18A15.74,15.74,0,0,1,821.28,813q-5.06-5.9-5.06-15.44,0-15,13.87-27t34.94-12q21.6,0,35.67,13.35a43.23,43.23,0,0,1,14.06,32.58,50.11,50.11,0,0,1-4.84,22.25q-3.66,7.47-18.45,20.94-19.25,17.28-23.36,25.52T863.6,900.4Zm-3.15,28.27a15.17,15.17,0,0,1,11.13,4.58,15,15,0,0,1,4.58,11,16.12,16.12,0,0,1-4.58,11.58,15.41,15.41,0,0,1-22.25.07,16.07,16.07,0,0,1-4.58-11.65,15,15,0,0,1,4.58-11.06A15.24,15.24,0,0,1,860.45,928.67Z"/><path class="cls-1" d="M327.43,668.12H15.68V356.37H327.43ZM22.2,661.6H320.91V362.89H22.2Z"/><path class="cls-1" d="M327.43,1008.13H15.68V696.37H327.43ZM22.2,1001.6H320.91V702.89H22.2Z"/><path class="cls-1" d="M667.89,1008.13H356.13V696.38H667.89Zm-305.24-6.52H661.36V702.9H362.65Z"/><path class="cls-1" d="M667,668.12H355.24V356.37H667ZM361.77,661.6H660.48V362.89H361.77Z"/><path class="cls-1" d="M1008.32,668.12H696.57V356.37h311.75ZM703.09,661.6H1001.8V362.89H703.09Z"/><path class="cls-1" d="M327.43,327.62H15.68V15.87H327.43ZM22.2,321.1H320.91V22.39H22.2Z"/><path class="cls-1" d="M667,327.62H355.24V15.87H667ZM361.77,321.1H660.48V22.39H361.77Z"/><path class="cls-1" d="M1008.32,327.62H696.57V15.87h311.75ZM703.09,321.1H1001.8V22.39H703.09Z"/><path class="cls-1" d="M162.51,488.35H122.89c-.66,5.27-2.34,14.78-3,18.82,3.71-3.06,9.32-5.27,17.79-5.27,19.52,0,30.5,14.09,30.5,32.9,0,19.12-10.45,36.69-37.17,36.69-19.56,0-33.93-10-36.12-27.7h21.46C118.23,550.61,123,555,131.45,555c10.21,0,15.11-7.53,15.11-18.45,0-10.32-3.8-17.64-15.16-17.64-9.19,0-12.92,4-15.16,9.86l-19.42-2.5c2.62-12.56,6.87-41.92,8.49-55.49h60.24Z"/><path class="cls-1" d="M181.3,541.24c0-12.63,8.85-20.36,16.18-23.67-7.6-4.7-12.21-10.63-12.21-20.66,0-16.79,12.28-27.92,34.54-27.92,20.35,0,33.72,10.6,33.72,27.64,0,11.39-5.84,17-12.59,19.85a25.74,25.74,0,0,1,16.12,24.07c0,20.39-16.3,30.94-38.85,30.94C198,571.49,181.3,560.81,181.3,541.24Zm54.28-1c0-9.8-6.75-14.32-16.39-14.32-10.76,0-16.28,5.82-16.28,14.19,0,8.79,6.59,14.62,16.66,14.62C228.84,554.77,235.58,550.36,235.58,540.28Zm-29.89-42.63c0,6.69,4.78,11.17,13.84,11.17,8.8,0,13.58-3.38,13.58-11.1,0-7.48-4.93-12.14-13.75-12.14C210.3,485.58,205.69,489.83,205.69,497.65Z"/><path class="cls-1" d="M159.65,115.79v16c-15.67,22.18-31,54.27-34.89,82.93H102.63c3.91-29.09,21.62-64,35.1-81.21H91.17V115.79Z"/><path class="cls-1" d="M171.34,141.21C172.73,129,181.31,114,206,114c22.9,0,33.07,13,33.07,26.91,0,11.91-6.83,17.58-12.24,20.08v.43c6.42,2.37,16.09,8.5,16.09,23.85,0,14.3-8.67,31.23-37.09,31.23-26.49,0-35.5-16-36.51-29.08h20.91c1.35,6.76,6,12.6,16.2,12.6,10,0,14.86-6.39,14.86-15.11,0-9.16-4.68-14.68-16.22-14.68h-8.9V153.65H204c9.87,0,13.86-3.27,13.86-11.56,0-6.8-4-11.36-12.56-11.36-10,0-12.44,5.59-13.52,10.48Z"/><path class="cls-1" d="M490,139.86c-1.22-4.88-4-9.55-12.64-9.55-13.25,0-16.7,12.44-17.29,25.74,4.17-5.09,11.18-9.16,22.41-9.16,18.12,0,31,13.36,31,32.8,0,21.12-13.51,36.8-36.3,36.8-28.69,0-38.25-22.1-38.25-50,0-25.74,9.12-52.47,39.43-52.47,21.49,0,31.5,13.45,32.48,25.87Zm1.95,41.61c0-9.4-3.49-17.84-15.37-17.84-9.61,0-15.25,5.62-15.25,17.08,0,8,3.83,18.66,15.3,18.66C487.08,199.37,491.92,191.48,491.92,181.47Z"/><path class="cls-1" d="M542.86,214.68V140.74c-4.59,2.13-13,3.87-17.88,4.29V129c9.37-1.72,18.86-7,24.52-13.27h15.19v99Z"/><path class="cls-1" d="M836.86,115.79v16c-15.67,22.18-31,54.27-34.89,82.93H779.85c3.9-29.09,21.62-64,35.1-81.21H768.39V115.79Z"/><path class="cls-1" d="M924.34,164.62c0,27.19-8.64,51.87-38,51.87-29,0-38-23.86-38-51.25,0-27.11,10-51.25,38.44-51.25C914.36,114,924.34,136.54,924.34,164.62Zm-53.81.37c0,18.18,2.07,34.36,16.07,34.36,13.66,0,15.45-15.13,15.45-34.6,0-19.2-2.32-33.63-15.24-33.63C874.17,131.12,870.53,143.58,870.53,165Z"/><path class="cls-1" d="M92.93,872c0-12.63,8.85-20.37,16.18-23.67-7.6-4.71-12.21-10.63-12.21-20.67,0-16.79,12.28-27.91,34.54-27.91,20.35,0,33.72,10.59,33.72,27.63,0,11.39-5.84,17-12.59,19.85a25.76,25.76,0,0,1,16.12,24.07c0,20.4-16.3,30.95-38.85,30.95C109.64,902.29,92.93,891.61,92.93,872Zm54.28-1c0-9.8-6.75-14.33-16.39-14.33-10.76,0-16.28,5.82-16.28,14.19,0,8.79,6.59,14.63,16.66,14.63C140.47,885.57,147.21,881.16,147.21,871.08Zm-29.89-42.64c0,6.69,4.78,11.18,13.84,11.18,8.8,0,13.58-3.38,13.58-11.11,0-7.48-4.93-12.13-13.75-12.13C121.93,816.38,117.32,820.62,117.32,828.44Z"/><path class="cls-1" d="M198.6,900.49v-74c-4.58,2.13-12.94,3.87-17.88,4.3V814.78c9.37-1.73,18.86-7.06,24.52-13.28h15.2v99Z"/><path class="cls-1" d="M484.63,825.67c-1.21-4.88-4-9.55-12.64-9.55-13.24,0-16.7,12.44-17.28,25.74,4.17-5.09,11.17-9.16,22.4-9.16,18.12,0,31,13.35,31,32.8,0,21.11-13.51,36.79-36.31,36.79-28.68,0-38.24-22.09-38.24-50,0-25.74,9.11-52.47,39.43-52.47,21.48,0,31.5,13.45,32.47,25.88Zm1.95,41.6c0-9.39-3.49-17.83-15.36-17.83-9.61,0-15.26,5.61-15.26,17.07,0,8,3.83,18.66,15.3,18.66C481.74,885.17,486.58,877.28,486.58,867.27Z"/><path class="cls-1" d="M542.21,876c1.87,5.78,5.39,9.51,13.68,9.51,14,0,15.48-16.95,16.06-27.94-4.16,5.7-12,8.31-20.67,8.31-20.46,0-32-14-32-31.79,0-19.4,13.5-34.19,36.4-34.19,28,0,37.5,21.59,37.5,46,0,27.82-7.14,56.29-38.2,56.29-23,0-32.42-14-34.21-26.23ZM541,833c0,10.06,5.87,16.24,15.15,16.24,9.52,0,14.71-4.88,14.71-15.77,0-6.64-2.75-16.84-15-16.84C545.87,816.66,541,823.81,541,833Z"/><path class="cls-1" d="M473.89,569.69V547.46H429.16V528.72l41.27-57.92h23.43v59.26h11.92l-2,17.4h-9.94v22.23Zm0-57.23c0-10.72,0-16.7.43-22.91-3.92,8.27-16.8,27.11-26.11,40.51h25.68Z"/><path class="cls-1" d="M569,494.87c-1.21-4.88-4-9.55-12.64-9.55-13.24,0-16.7,12.44-17.28,25.74,4.17-5.09,11.17-9.16,22.4-9.16,18.12,0,31,13.36,31,32.8,0,21.12-13.51,36.8-36.31,36.8-28.68,0-38.24-22.1-38.24-50,0-25.75,9.11-52.47,39.43-52.47,21.48,0,31.5,13.45,32.47,25.87Zm2,41.61c0-9.4-3.49-17.84-15.36-17.84-9.61,0-15.26,5.62-15.26,17.08,0,8,3.83,18.66,15.3,18.66C566.13,554.38,571,546.49,571,536.48Z"/><path class="cls-1" d="M839.72,488.35H800.1c-.65,5.27-2.34,14.78-3,18.82,3.72-3.06,9.32-5.27,17.8-5.27,19.51,0,30.5,14.09,30.5,32.9,0,19.12-10.45,36.7-37.17,36.7-19.56,0-33.93-10-36.12-27.71h21.46c1.89,6.82,6.64,11.23,15.11,11.23,10.2,0,15.11-7.53,15.11-18.45,0-10.32-3.8-17.64-15.16-17.64-9.2,0-12.92,4-15.17,9.87L774,526.29c2.63-12.56,6.88-41.92,8.5-55.49h60.23Z"/><path class="cls-1" d="M925.54,488.35H885.92c-.66,5.27-2.34,14.78-3,18.82,3.71-3.06,9.32-5.27,17.8-5.27,19.51,0,30.49,14.09,30.49,32.9,0,19.12-10.44,36.7-37.17,36.7-19.56,0-33.92-10-36.12-27.71h21.46c1.9,6.82,6.65,11.23,15.11,11.23,10.21,0,15.11-7.53,15.11-18.45,0-10.32-3.8-17.64-15.16-17.64-9.19,0-12.92,4-15.16,9.87l-19.42-2.51c2.62-12.56,6.87-41.92,8.49-55.49h60.24Z"/></svg>