<svg id="Layer_1" data-name="Layer 1" xmlns="http://www.w3.org/2000/svg" viewBox="0 0 1024 1024"><defs><style>.cls-1{fill:#28527a;}</style></defs><title>Q</title><path class="cls-1" d="M987.44,986.36H37.64V36.56h949.8ZM45,979H980.08V43.92H45Z"/><path class="cls-1" d="M485.68,342.78v49.29C437.29,460.54,389.92,559.62,378,648.12H309.64C321.69,558.3,376.39,450.63,418,397.38H274.25v-54.6Z"/><path class="cls-1" d="M517.27,560.29c0-39,27.31-62.89,50-73.1-23.46-14.51-37.71-32.82-37.71-63.8,0-51.84,37.92-86.18,106.66-86.18,62.82,0,104.12,32.7,104.12,85.31,0,35.18-18,52.36-38.88,61.29,22,8.17,49.78,33.9,49.78,74.32,0,63-50.35,95.56-120,95.56C568.84,653.69,517.27,620.71,517.27,560.29Zm167.6-3c0-30.25-20.84-44.23-50.61-44.23-33.24,0-50.26,18-50.26,43.82,0,27.13,20.32,45.15,51.43,45.15C664.05,602.06,684.87,588.44,684.87,557.32ZM592.56,425.68c0,20.66,14.77,34.5,42.74,34.5,27.17,0,41.94-10.43,41.94-34.28,0-23.11-15.24-37.47-42.46-37.47C606.81,388.43,592.56,401.53,592.56,425.68Z"/></svg>