<svg id="Layer_1" data-name="Layer 1" xmlns="http://www.w3.org/2000/svg" viewBox="0 0 1024 1024"><defs><style>.cls-1{fill:#28527a;}</style></defs><title>Q</title><path class="cls-1" d="M1004.71,1004.71H19.29V19.29h985.42Zm-978-7.46h970.5V26.75H26.75Z"/><path class="cls-1" d="M512,938.51c-113.93,0-221-44.37-301.59-124.92S85.49,625.93,85.49,512s44.37-221,124.92-301.58S398.07,85.49,512,85.49s221,44.37,301.59,124.93S938.51,398.08,938.51,512,894.14,733,813.59,813.59,625.93,938.51,512,938.51ZM512,93C280.94,93,93,280.94,93,512S280.94,931.05,512,931.05s419.05-188,419.05-419S743.06,93,512,93Z"/><rect class="cls-1" x="508.27" y="89.22" width="7.46" height="845.55"/><rect class="cls-1" x="89.22" y="508.27" width="845.55" height="7.46"/><path class="cls-1" d="M679.68,405.09a79.71,79.71,0,1,1,79.7-79.71A79.8,79.8,0,0,1,679.68,405.09Zm0-152a72.25,72.25,0,1,0,72.24,72.25A72.33,72.33,0,0,0,679.68,253.13Z"/><polygon class="cls-1" points="679.68 612.32 717.45 677.74 755.23 743.17 679.68 743.17 604.13 743.17 641.9 677.74 679.68 612.32"/></svg>