<svg id="Layer_1" data-name="Layer 1" xmlns="http://www.w3.org/2000/svg" viewBox="0 0 1024 1024"><defs><style>.cls-1{fill:#28527a;}</style></defs><title>org 1</title><path class="cls-1" d="M864.31,901.19h-6.95q0-15.47,1.64-24.37a55.09,55.09,0,0,1,4.19-14.08q2.56-5.18,13-18.93,8.26-10.74,11.61-20.24a62.8,62.8,0,0,0,3.34-20.9q0-15.45-8.7-24.89a27.82,27.82,0,0,0-21.26-9.43q-10.86,0-18.12,5.36t-7.26,11q0,3.13,5.12,7.06,7.72,6,7.73,13.08a14.41,14.41,0,0,1-4.08,10.47,13.73,13.73,0,0,1-10.27,4.18,15.79,15.79,0,0,1-12.44-5.9q-5.07-5.9-5.07-15.47,0-15.09,13.9-27.08t35-12q21.63,0,35.73,13.37a43.32,43.32,0,0,1,14.1,32.66,50.32,50.32,0,0,1-4.85,22.29q-3.68,7.47-18.49,21Q873,865.65,868.83,873.91T864.31,901.19Zm-3.15,28.32a15.2,15.2,0,0,1,11.15,4.59,15,15,0,0,1,4.59,11,16.15,16.15,0,0,1-4.59,11.6,15.45,15.45,0,0,1-22.3.07,16.1,16.1,0,0,1-4.59-11.67A15,15,0,0,1,850,934,15.29,15.29,0,0,1,861.16,929.51Z"/><path class="cls-1" d="M327.06,668.44H14.67V356.05H327.06ZM21.21,661.9H320.52V362.59H21.21Z"/><path class="cls-1" d="M327.06,1009.13H14.68V696.75H327.06ZM21.21,1002.6H320.53V703.28H21.21Z"/><path class="cls-1" d="M668.2,1009.13H355.82V696.75H668.2Zm-305.85-6.53H661.67V703.29H362.35Z"/><path class="cls-1" d="M667.31,668.44H354.93V356.05H667.31ZM361.46,661.9H660.78V362.59H361.46Z"/><path class="cls-1" d="M1009.33,668.44H696.94V356.05h312.39ZM703.48,661.9h299.31V362.59H703.48Z"/><path class="cls-1" d="M327.06,327.25H14.67V14.87H327.06ZM21.21,320.72H320.52V21.4H21.21Z"/><path class="cls-1" d="M667.31,327.25H354.93V14.87H667.31Zm-305.85-6.54H660.78V21.4H361.46Z"/><path class="cls-1" d="M1009.33,327.25H696.94V14.87h312.39Zm-305.85-6.53h299.31V21.4H703.48Z"/><rect class="cls-1" x="53.96" y="56.01" width="231.5" height="231.5"/><rect class="cls-1" x="53.96" y="392.79" width="231.5" height="231.5"/><rect class="cls-1" x="53.96" y="736.56" width="231.5" height="231.5" rx="115.75"/><path class="cls-1" d="M543.33,204H478.91V139.56h64.42Zm-57.88-6.54h51.34V146.09H485.45Z"/><path class="cls-1" d="M741.45,56V287.52H973V56ZM886.14,200.7H828.26V142.83h57.88Z"/><path class="cls-1" d="M547.1,563.21l-36-18.92-36,18.92L482,523.15,452.9,494.77l40.23-5.84,18-36.46,18,36.46,40.23,5.84-29.11,28.38Zm-80.16-63.88L489,520.86l-5.21,30.4,27.3-14.35,27.3,14.35-5.21-30.4,22.08-21.53-30.52-4.43-13.65-27.66L497.47,494.9Z"/><path class="cls-1" d="M741.45,392.79V624.3H973V392.79ZM888.84,557.24,857.2,540.6l-31.64,16.64,6-35.24L806,497.05l35.38-5.14,15.82-32.05L873,491.91l35.38,5.14L882.8,522Z"/><path class="cls-1" d="M511.12,900.75a48.44,48.44,0,1,1,48.44-48.44A48.49,48.49,0,0,1,511.12,900.75Zm0-90.34a41.91,41.91,0,1,0,41.9,41.9A41.95,41.95,0,0,0,511.12,810.41Z"/></svg>