<svg id="Layer_1" data-name="Layer 1" xmlns="http://www.w3.org/2000/svg" viewBox="0 0 1024 1024"><defs><style>.cls-1{fill:#28527a;}</style></defs><title>Q</title><path class="cls-1" d="M976.65,976.65H47.35V47.35h929.3Zm-922.1-7.2h914.9V54.55H54.55Z"/><rect class="cls-1" x="508.4" y="-140.02" width="7.2" height="1304.05" transform="translate(-212.08 512) rotate(-45)"/><path class="cls-1" d="M921.49,297.63l-79.73-41.92L762,297.63l15.23-88.79L712.74,146l89.15-13,39.87-80.79L881.62,133l89.15,13-64.51,62.88Zm-79.73-50.06,70.17,36.89-13.41-78.14L955.29,151l-78.45-11.4L841.76,68.5l-35.09,71.09L728.22,151,785,206.32l-13.4,78.14Z"/><polygon class="cls-1" points="136.02 778.1 220.92 871.84 305.81 778.1 261.29 778.1 261.29 606.97 180.54 606.97 180.54 778.1 136.02 778.1"/></svg>