<svg id="Layer_1" data-name="Layer 1" xmlns="http://www.w3.org/2000/svg" viewBox="0 0 1024 1024"><defs><style>.cls-1{fill:#28527a;}</style></defs><title>Q</title><path class="cls-1" d="M522.12,929.74h-3.64c-110.51,0-214.4-43-292.53-121.17s-121.17-182-121.17-292.52,43-214.4,121.17-292.53S408,102.35,518.48,102.35s214.39,43,292.53,121.17,121.16,182,121.16,292.53v3.64h-410Zm-3.64-820.11c-224.1,0-406.42,182.32-406.42,406.42,0,222.88,180.35,404.43,402.78,406.4v-410h410C922.91,290,741.36,109.63,518.48,109.63Z"/><rect class="cls-1" x="514.84" y="105.99" width="7.28" height="410.06"/><rect class="cls-1" x="108.42" y="512.4" width="410.06" height="7.28"/><path class="cls-1" d="M928.53,516c0,226.48-183.58,410.06-410,410.06V516Z"/><path class="cls-1" d="M518.48,929.74h-3.64V512.41H932.17v3.64c0,110.5-43,214.39-121.16,292.52S629,929.74,518.48,929.74Zm3.64-410V922.45c221.21-2,400.8-181.55,402.76-402.76Z"/><path class="cls-1" d="M994,994H38.14V38.14H994ZM45.42,986.67H986.67V45.42H45.42Zm473.06-56.93h-3.64V512.41H932.17v3.64c0,110.5-43,214.39-121.16,292.52S629,929.74,518.48,929.74Zm3.64-410V922.45c221.21-2,400.8-181.55,402.76-402.76Z"/><path class="cls-1" d="M354.75,442.33a93.64,93.64,0,1,1,93.63-93.64A93.74,93.74,0,0,1,354.75,442.33Zm0-182.9A89.27,89.27,0,1,0,444,348.69,89.36,89.36,0,0,0,354.75,259.43Z"/></svg>