<svg id="Layer_1" data-name="Layer 1" xmlns="http://www.w3.org/2000/svg" viewBox="0 0 1024 1024"><defs><style>.cls-1{fill:#28527a;}.cls-2{fill:none;stroke:#28527a;stroke-miterlimit:10;stroke-width:5px;}</style></defs><title>Q</title><path class="cls-1" d="M521.25,554.83h-6.76q0-15,1.59-23.71a53.61,53.61,0,0,1,4.09-13.7q2.49-5,12.69-18.42,8-10.46,11.29-19.69A60.85,60.85,0,0,0,547.41,459q0-15-8.47-24.21a27.06,27.06,0,0,0-20.68-9.18q-10.58,0-17.63,5.22t-7.07,10.69q0,3.06,5,6.87,7.53,5.85,7.53,12.72a14,14,0,0,1-4,10.19,13.4,13.4,0,0,1-10,4.07A15.37,15.37,0,0,1,480,469.6q-4.94-5.75-4.94-15.06,0-14.67,13.53-26.35t34.06-11.67q21.06,0,34.77,13a42.16,42.16,0,0,1,13.72,31.77A49,49,0,0,1,566.42,483q-3.57,7.27-18,20.42-18.76,16.84-22.78,24.88T521.25,554.83Zm-3.06,27.56A14.77,14.77,0,0,1,529,586.85a14.62,14.62,0,0,1,4.47,10.72A15.7,15.7,0,0,1,529,608.86a15,15,0,0,1-21.69.06,15.62,15.62,0,0,1-4.46-11.35,14.53,14.53,0,0,1,4.46-10.78A14.86,14.86,0,0,1,518.19,582.39Z"/><path class="cls-2" d="M14.42,180.27V843.73h995.16V180.27ZM660.8,660.79H363.21V363.21H660.8Z"/><rect class="cls-1" x="14.42" y="441.33" width="348.8" height="6.36"/><rect class="cls-1" x="660.8" y="441.33" width="348.79" height="6.36"/><rect class="cls-1" x="14.42" y="486.2" width="348.8" height="6.36"/><rect class="cls-1" x="660.8" y="486.2" width="348.79" height="6.36"/><rect class="cls-1" x="419.42" y="660.79" width="6.36" height="182.94"/><rect class="cls-1" x="419.42" y="180.27" width="6.36" height="182.94"/><path class="cls-1" d="M664,664H360V360H664Zm-297.59-6.36H657.62V366.39H366.39Z"/><rect class="cls-1" x="469.47" y="660.79" width="6.36" height="182.94"/><rect class="cls-1" x="469.47" y="180.27" width="6.36" height="182.94"/></svg>