<svg id="Layer_1" data-name="Layer 1" xmlns="http://www.w3.org/2000/svg" viewBox="0 0 1024 1024"><defs><style>.cls-1{fill:#28527a;}</style></defs><title>Q</title><path class="cls-1" d="M986.36,986.36H36V36h950.4ZM43.33,979H979V43.33H43.33Z"/><path class="cls-1" d="M258.54,576c0-39,27.32-62.93,50-73.14-23.48-14.53-37.74-32.84-37.74-63.84,0-51.88,38-86.24,106.73-86.24,62.86,0,104.19,32.72,104.19,85.37,0,35.19-18.05,52.39-38.91,61.33,22,8.17,49.81,33.91,49.81,74.36,0,63-50.37,95.62-120,95.62C310.14,669.5,258.54,636.5,258.54,576Zm167.7-3c0-30.26-20.85-44.25-50.64-44.25-33.26,0-50.29,18-50.29,43.85,0,27.15,20.34,45.18,51.46,45.18C405.41,617.84,426.24,604.21,426.24,573.06ZM333.87,441.35c0,20.67,14.79,34.52,42.77,34.52,27.19,0,42-10.44,42-34.3,0-23.13-15.25-37.5-42.49-37.5C348.13,404.07,333.87,417.18,333.87,441.35Z"/><path class="cls-1" d="M529.72,576c0-39,27.32-62.93,50-73.14C556.22,488.37,542,470.06,542,439.06c0-51.88,37.95-86.24,106.73-86.24,62.86,0,104.19,32.72,104.19,85.37,0,35.19-18.06,52.39-38.91,61.33,22,8.17,49.81,33.91,49.81,74.36,0,63-50.38,95.62-120,95.62C581.32,669.5,529.72,636.5,529.72,576Zm167.7-3c0-30.26-20.86-44.25-50.64-44.25-33.26,0-50.29,18-50.29,43.85,0,27.15,20.33,45.18,51.46,45.18C676.58,617.84,697.42,604.21,697.42,573.06ZM605.05,441.35c0,20.67,14.78,34.52,42.77,34.52,27.18,0,42-10.44,42-34.3,0-23.13-15.25-37.5-42.49-37.5C619.31,404.07,605.05,417.18,605.05,441.35Z"/></svg>