<svg id="Layer_1" data-name="Layer 1" xmlns="http://www.w3.org/2000/svg" viewBox="0 0 1024 1024"><defs><style>.cls-1{fill:#28527a;}</style></defs><title>Q</title><path class="cls-1" d="M986.36,986.36H36V36h950.4ZM43.33,979H979V43.33H43.33Z"/><path class="cls-1" d="M256.11,647.91v-4.25c0-53.2,23.92-96.48,90.06-144.66,43.13-31.52,56.19-42.42,56.19-69.11,0-26.48-12.86-41.37-38.57-41.37-29.94,0-40.73,18.33-44.94,44.92H254.7c4.4-52.71,38.89-96.64,109.09-96.64,78.51,0,105.39,46.75,105.39,92.52,0,44.5-19.15,66-75.39,105.5-37.68,26.46-52.82,43.86-58,57.63H480.49l-8.26,55.46Z"/><path class="cls-1" d="M515.75,420.9c4.29-37.61,30.82-84.1,107.2-84.1,70.77,0,102.2,40.06,102.2,83.15,0,36.8-21.12,54.31-37.81,62v1.34c19.83,7.3,49.7,26.24,49.7,73.68,0,44.18-26.78,96.47-114.61,96.47-81.84,0-109.68-49.39-112.8-89.84h64.61c4.16,20.89,18.55,38.94,50,38.94,30.8,0,45.92-19.76,45.92-46.69,0-28.31-14.46-45.36-50.1-45.36H592.6v-51.2h24.2c30.5,0,42.81-10.11,42.81-35.7,0-21-12.48-35.11-38.81-35.11-31,0-38.43,17.27-41.77,32.38Z"/></svg>