<svg id="Layer_1" data-name="Layer 1" xmlns="http://www.w3.org/2000/svg" viewBox="0 0 1024 1024"><defs><style>.cls-1{fill:#28527a;}</style></defs><title>Q</title><path class="cls-1" d="M987.32,987.32H37.16V37.16H987.32ZM44.52,980H980V44.52H44.52Z"/><path class="cls-1" d="M257.25,649V644.7c0-53.18,23.92-96.45,90.05-144.62,43.11-31.51,56.16-42.41,56.16-69.09,0-26.47-12.84-41.36-38.56-41.36C335,389.63,324.19,408,320,434.54H255.84c4.4-52.7,38.89-96.62,109.06-96.62,78.5,0,105.37,46.74,105.37,92.5,0,44.49-19.14,66-75.37,105.47-37.67,26.46-52.8,43.85-58,57.62H481.58L473.32,649Z"/><path class="cls-1" d="M672.57,417.85c-3.75-15.08-12.46-29.5-39.05-29.5-40.92,0-51.59,38.43-53.39,79.51,12.89-15.73,34.52-28.29,69.2-28.29,56,0,95.65,41.24,95.65,101.31,0,65.22-41.73,113.65-112.14,113.65-88.6,0-118.13-68.24-118.13-154.54,0-79.51,28.15-162.07,121.78-162.07,66.37,0,97.31,41.56,100.32,79.93Zm6,128.51c0-29-10.77-55.08-47.45-55.08C601.44,491.28,584,508.62,584,544c0,24.72,11.83,57.63,47.25,57.63C663.64,601.65,678.58,577.27,678.58,546.36Z"/></svg>