<svg id="Layer_1" data-name="Layer 1" xmlns="http://www.w3.org/2000/svg" viewBox="0 0 1024 1024"><defs><style>.cls-1{fill:#28527a;}</style></defs><title>Q</title><path class="cls-1" d="M863.59,900.4h-6.93q0-15.42,1.63-24.32A55,55,0,0,1,862.48,862q2.55-5.16,13-18.89,8.25-10.73,11.59-20.2a62.56,62.56,0,0,0,3.33-20.86q0-15.42-8.68-24.83a27.76,27.76,0,0,0-21.21-9.42q-10.85,0-18.09,5.36t-7.24,11q0,3.14,5.1,7.05,7.73,6,7.72,13A14.36,14.36,0,0,1,844,814.69a13.7,13.7,0,0,1-10.25,4.18A15.74,15.74,0,0,1,821.28,813q-5.06-5.88-5.06-15.44,0-15,13.87-27t34.94-12q21.6,0,35.67,13.35a43.24,43.24,0,0,1,14.06,32.59,50.1,50.1,0,0,1-4.84,22.24q-3.66,7.47-18.45,20.94-19.25,17.28-23.36,25.52T863.59,900.4Zm-3.14,28.27a15.17,15.17,0,0,1,11.13,4.58,15,15,0,0,1,4.58,11,16.12,16.12,0,0,1-4.58,11.58,15.41,15.41,0,0,1-22.25.07,16.07,16.07,0,0,1-4.58-11.65,15,15,0,0,1,4.58-11.06A15.24,15.24,0,0,1,860.45,928.67Z"/><path class="cls-1" d="M327.43,668.12H15.68V356.37H327.43ZM22.2,661.6H320.91V362.89H22.2Z"/><path class="cls-1" d="M327.43,1008.13H15.68V696.37H327.43ZM22.2,1001.6H320.91V702.89H22.2Z"/><path class="cls-1" d="M667.89,1008.13H356.13V696.38H667.89Zm-305.24-6.52H661.36V702.9H362.65Z"/><path class="cls-1" d="M667,668.12H355.24V356.37H667ZM361.77,661.6H660.48V362.89H361.77Z"/><path class="cls-1" d="M1008.32,668.12H696.57V356.37h311.75ZM703.09,661.6H1001.8V362.89H703.09Z"/><path class="cls-1" d="M327.43,327.62H15.68V15.87H327.43ZM22.2,321.1H320.91V22.39H22.2Z"/><path class="cls-1" d="M667,327.62H355.24V15.87H667ZM361.77,321.1H660.48V22.39H361.77Z"/><path class="cls-1" d="M1008.32,327.62H696.57V15.87h311.75ZM703.09,321.1H1001.8V22.39H703.09Z"/><path class="cls-1" d="M132.85,541.24c0-12.63,8.84-20.36,16.17-23.67-7.59-4.7-12.21-10.63-12.21-20.66,0-16.79,12.28-27.91,34.54-27.91,20.35,0,33.73,10.59,33.73,27.63,0,11.39-5.85,17-12.6,19.85a25.75,25.75,0,0,1,16.13,24.07c0,20.39-16.31,31-38.86,31C149.55,571.5,132.85,560.81,132.85,541.24Zm54.28-1c0-9.8-6.75-14.32-16.39-14.32-10.77,0-16.28,5.82-16.28,14.19,0,8.79,6.58,14.62,16.65,14.62C180.38,554.77,187.13,550.36,187.13,540.28Zm-29.9-42.63c0,6.69,4.78,11.17,13.84,11.17,8.8,0,13.59-3.38,13.59-11.1,0-7.48-4.94-12.13-13.76-12.13C161.85,485.59,157.23,489.83,157.23,497.65Z"/><path class="cls-1" d="M119.35,900.49v-74c-4.58,2.13-12.94,3.87-17.87,4.3V814.78c9.37-1.73,18.85-7.06,24.52-13.28h15.19v99Z"/><path class="cls-1" d="M236.87,850.42c0,27.19-8.64,51.87-38,51.87-29,0-38-23.86-38-51.25,0-27.11,10-51.25,38.44-51.25C226.89,799.79,236.87,822.34,236.87,850.42Zm-53.81.37c0,18.18,2.07,34.36,16.07,34.36,13.66,0,15.45-15.13,15.45-34.6,0-19.2-2.32-33.62-15.24-33.62C186.7,816.93,183.06,829.38,183.06,850.79Z"/><path class="cls-1" d="M425.17,900.49v-1.38c0-17.22,7.75-31.23,29.15-46.82,14-10.2,18.19-13.73,18.19-22.37s-4.16-13.39-12.49-13.39c-9.68,0-13.18,5.93-14.54,14.54H424.72c1.42-17.06,12.59-31.28,35.3-31.28,25.42,0,34.12,15.13,34.12,30,0,14.4-6.2,21.36-24.4,34.14-12.2,8.57-17.1,14.2-18.78,18.66H497.8l-2.68,18Z"/><path class="cls-1" d="M585.3,850.42c0,27.19-8.64,51.87-38,51.87-29,0-38-23.86-38-51.25,0-27.11,10-51.25,38.44-51.25C575.32,799.79,585.3,822.35,585.3,850.42Zm-53.81.37c0,18.18,2.07,34.36,16.07,34.36,13.66,0,15.45-15.13,15.45-34.6,0-19.2-2.32-33.62-15.25-33.62C535.13,816.93,531.49,829.38,531.49,850.79Z"/><path class="cls-1" d="M456.74,569.69V495.75c-4.59,2.12-12.95,3.87-17.88,4.29V484c9.37-1.72,18.86-7.05,24.52-13.27h15.2v99Z"/><path class="cls-1" d="M496.56,541.24c0-12.63,8.84-20.36,16.17-23.67-7.59-4.7-12.21-10.63-12.21-20.66,0-16.79,12.28-27.91,34.55-27.91,20.34,0,33.72,10.59,33.72,27.63,0,11.39-5.85,17-12.6,19.85a25.75,25.75,0,0,1,16.13,24.07c0,20.39-16.31,31-38.85,31C513.26,571.5,496.56,560.81,496.56,541.24Zm54.28-1c0-9.8-6.75-14.32-16.39-14.32-10.77,0-16.28,5.82-16.28,14.19,0,8.79,6.58,14.62,16.65,14.62C544.09,554.77,550.84,550.36,550.84,540.28Zm-29.9-42.63c0,6.69,4.78,11.17,13.84,11.17,8.8,0,13.59-3.38,13.59-11.1,0-7.48-4.94-12.13-13.76-12.13C525.56,485.59,520.94,489.83,520.94,497.65Z"/><path class="cls-1" d="M841,545.22c1.87,5.78,5.39,9.52,13.68,9.52,14,0,15.48-17,16.06-27.94-4.16,5.7-12,8.3-20.67,8.3-20.46,0-32.05-14-32.05-31.79,0-19.4,13.51-34.18,36.4-34.18,28,0,37.5,21.59,37.5,46,0,27.82-7.13,56.3-38.2,56.3-23,0-32.41-14-34.21-26.24Zm-1.23-43c0,10.07,5.86,16.25,15.14,16.25,9.52,0,14.71-4.88,14.71-15.78,0-6.63-2.75-16.83-15-16.83C844.7,485.87,839.81,493,839.81,502.23Z"/><path class="cls-1" d="M790,218.91V145c-4.58,2.12-12.94,3.87-17.87,4.29V133.2c9.37-1.72,18.85-7.06,24.52-13.27h15.19v99Z"/><path class="cls-1" d="M899.69,137.57H860.07c-.66,5.27-2.34,14.78-3,18.82,3.71-3.06,9.32-5.27,17.8-5.27,19.51,0,30.49,14.09,30.49,32.9,0,19.12-10.44,36.69-37.17,36.69-19.56,0-33.92-10-36.12-27.7h21.46c1.9,6.82,6.65,11.23,15.11,11.23,10.21,0,15.11-7.53,15.11-18.45,0-10.32-3.8-17.65-15.16-17.65-9.19,0-12.92,4-15.16,9.87L834,175.51c2.62-12.56,6.87-41.92,8.49-55.49h60.24Z"/><path class="cls-1" d="M433.32,145.44c1.38-12.18,10-27.23,34.69-27.23,22.91,0,33.08,13,33.08,26.92,0,11.91-6.83,17.58-12.24,20.08v.43c6.42,2.36,16.09,8.49,16.09,23.85,0,14.3-8.67,31.22-37.1,31.22-26.49,0-35.5-16-36.51-29.08h20.92c1.34,6.77,6,12.61,16.19,12.61,10,0,14.87-6.4,14.87-15.11,0-9.17-4.68-14.69-16.22-14.69h-8.9V157.87H466c9.87,0,13.86-3.27,13.86-11.55,0-6.8-4-11.37-12.57-11.37-10,0-12.43,5.59-13.51,10.49Z"/><path class="cls-1" d="M593.71,168.84c0,27.2-8.64,51.87-38,51.87-29,0-38-23.86-38-51.25,0-27.1,9.95-51.25,38.43-51.25C583.73,118.21,593.71,140.77,593.71,168.84Zm-53.81.38c0,18.18,2.08,34.36,16.08,34.36,13.65,0,15.44-15.13,15.44-34.6,0-19.2-2.32-33.63-15.24-33.63C543.55,135.35,539.9,147.8,539.9,169.22Z"/><path class="cls-1" d="M86.59,218.91v-1.38c0-17.22,7.74-31.22,29.15-46.82,14-10.2,18.18-13.73,18.18-22.36S129.76,135,121.44,135c-9.69,0-13.18,5.94-14.55,14.54H86.13c1.42-17.06,12.59-31.28,35.31-31.28,25.41,0,34.11,15.14,34.11,30,0,14.4-6.2,21.37-24.4,34.15-12.2,8.56-17.1,14.19-18.78,18.65h46.84l-2.67,17.95Z"/><path class="cls-1" d="M246.71,168.84c0,27.2-8.64,51.87-38,51.87-29,0-38-23.86-38-51.25,0-27.1,10-51.25,38.44-51.25C236.73,118.21,246.71,140.77,246.71,168.84Zm-53.81.38c0,18.18,2.07,34.36,16.07,34.36,13.66,0,15.45-15.13,15.45-34.6,0-19.2-2.32-33.63-15.24-33.63C196.54,135.35,192.9,147.8,192.9,169.22Z"/></svg>