<svg id="Layer_1" data-name="Layer 1" xmlns="http://www.w3.org/2000/svg" viewBox="0 0 1024 1024"><defs><style>.cls-1{fill:#28527a;}</style></defs><title>Q</title><path class="cls-1" d="M990.86,990.44H33.56V33.14h957.3ZM41,983H983.44V40.56H41Z"/><path class="cls-1" d="M361.49,649.53V419.41c-14.26,6.62-40.28,12-55.64,13.37v-50c29.17-5.37,58.69-22,76.31-41.31h47.29v308Z"/><path class="cls-1" d="M727.2,493.73c0,84.62-26.89,161.42-118.27,161.42-90.27,0-118.2-74.26-118.2-159.5,0-84.36,31-159.49,119.61-159.49C696.14,336.16,727.2,406.35,727.2,493.73Zm-167.46,1.16c0,56.57,6.45,106.92,50,106.92,42.5,0,48.07-47.08,48.07-107.67,0-59.76-7.22-104.65-47.44-104.65C571.08,389.49,559.74,428.25,559.74,494.89Z"/></svg>