<svg id="Layer_1" data-name="Layer 1" xmlns="http://www.w3.org/2000/svg" viewBox="0 0 1024 1024"><defs><style>.cls-1{fill:#28527a;}</style></defs><title>Q</title><path class="cls-1" d="M986.36,986.36H36.68V36.68H986.36ZM44,979H979V44H44Z"/><path class="cls-1" d="M357.82,648.17V419.88c-14.14,6.57-40,11.95-55.19,13.26V383.56c28.94-5.33,58.22-21.79,75.7-41h46.91V648.17Z"/><path class="cls-1" d="M485.26,421.33c4.29-37.58,30.79-84,107.12-84,70.72,0,102.12,40,102.12,83.09,0,36.77-21.1,54.27-37.79,62v1.34c19.82,7.29,49.67,26.22,49.67,73.62,0,44.16-26.76,96.4-114.52,96.4-81.78,0-109.6-49.35-112.72-89.77h64.57c4.15,20.87,18.53,38.91,50,38.91,30.79,0,45.89-19.74,45.89-46.65,0-28.3-14.45-45.33-50.06-45.33H562.05V459.72h24.18c30.47,0,42.78-10.09,42.78-35.66,0-21-12.47-35.09-38.79-35.09-31,0-38.39,17.26-41.73,32.36Z"/></svg>