<svg id="Layer_1" data-name="Layer 1" xmlns="http://www.w3.org/2000/svg" viewBox="0 0 1024 1024"><defs><style>.cls-1{fill:#28527a;}</style></defs><title>Q</title><path class="cls-1" d="M1004.71,1004.71H19.29V19.29h985.42Zm-978-7.46h970.5V26.75H26.75Z"/><path class="cls-1" d="M512,938.51c-113.92,0-221-44.37-301.59-124.92S85.5,625.93,85.5,512s44.36-221,124.91-301.58S398.08,85.49,512,85.49s221,44.37,301.59,124.93S938.51,398.08,938.51,512,894.14,733,813.59,813.59,625.93,938.51,512,938.51ZM512,93C280.94,93,93,280.94,93,512s188,419.05,419,419.05,419.05-188,419.05-419S743.06,93,512,93Z"/><rect class="cls-1" x="508.27" y="89.22" width="7.46" height="845.55"/><rect class="cls-1" x="89.22" y="508.27" width="845.55" height="7.46"/><circle class="cls-1" cx="679.68" cy="325.38" r="75.98" transform="translate(249.62 944.16) rotate(-80.78)"/><path class="cls-1" d="M761.69,746.9h-164l82-142Zm-151.1-7.46H748.76L679.68,619.77Z"/></svg>