<svg id="Layer_1" data-name="Layer 1" xmlns="http://www.w3.org/2000/svg" viewBox="0 0 1024 1024"><defs><style>.cls-1{fill:#28527a;}</style></defs><title>org 1</title><path class="cls-1" d="M1008,1008H16V16H1008Zm-984.37-7.69h976.68V23.66H23.66Z"/><path class="cls-1" d="M105.54,500h0c0,230.92,187.2,418.12,418.12,418.12h0c230.92,0,418.12-187.2,418.12-418.12h0c0-230.92-187.2-418.12-418.12-418.12h0C292.74,81.88,105.54,269.08,105.54,500ZM525.08,663.16A163.16,163.16,0,0,1,360.5,498.58c.75-88.59,73.15-161,161.74-161.74A163.16,163.16,0,0,1,686.82,501.42C686.07,590,613.67,662.41,525.08,663.16Z"/></svg>