<svg id="Layer_1" data-name="Layer 1" xmlns="http://www.w3.org/2000/svg" viewBox="0 0 1024 1024"><defs><style>.cls-1{fill:#28527a;}</style></defs><title>Q</title><path class="cls-1" d="M856.59,725.81H849.8q0-15.12,1.6-23.83a54.29,54.29,0,0,1,4.1-13.78q2.5-5.06,12.77-18.51,8.07-10.52,11.35-19.8a61.2,61.2,0,0,0,3.27-20.44q0-15.12-8.51-24.34a27.24,27.24,0,0,0-20.79-9.23q-10.64,0-17.73,5.25t-7.1,10.74q0,3.07,5,6.91,7.57,5.88,7.57,12.79a14.08,14.08,0,0,1-4,10.24,13.44,13.44,0,0,1-10.05,4.09,15.44,15.44,0,0,1-12.17-5.77q-5-5.77-5-15.14,0-14.75,13.6-26.48T858,586.77q21.16,0,35,13.09a42.33,42.33,0,0,1,13.78,31.93A49.23,49.23,0,0,1,902,653.6q-3.6,7.3-18.09,20.52-18.85,16.93-22.89,25T856.59,725.81Zm-3.07,27.7a15.33,15.33,0,0,1,15.39,15.27,15.82,15.82,0,0,1-4.49,11.35,15.11,15.11,0,0,1-21.81.06,15.74,15.74,0,0,1-4.49-11.41,14.64,14.64,0,0,1,4.49-10.84A15,15,0,0,1,853.52,753.51Z"/><path class="cls-1" d="M331.11,498.15H25.56V192.61H331.11ZM32,491.76H324.71V199H32Z"/><path class="cls-1" d="M331.11,831.39H25.56V525.84H331.11ZM32,825H324.72V532.24H32Z"/><path class="cls-1" d="M664.78,831.39H359.24V525.85H664.78ZM365.63,825H658.39V532.24H365.63Z"/><path class="cls-1" d="M663.91,498.15H358.37V192.61H663.91Zm-299.15-6.39H657.52V199H364.76Z"/><path class="cls-1" d="M998.44,498.15H692.89V192.61H998.44Zm-299.15-6.39H992.05V199H699.29Z"/><rect class="cls-1" x="175.14" y="133.85" width="6.39" height="423.07" transform="translate(-191.99 227.26) rotate(-45)"/><rect class="cls-1" x="507.94" y="133.85" width="6.39" height="423.07" transform="translate(-94.51 462.59) rotate(-45)"/><rect class="cls-1" x="842.47" y="133.85" width="6.39" height="423.07" transform="translate(3.47 699.14) rotate(-45)"/><rect class="cls-1" x="508.81" y="467.09" width="6.39" height="423.07" transform="translate(-329.89 560.81) rotate(-45)"/><rect class="cls-1" x="175.14" y="467.08" width="6.39" height="423.07" transform="translate(-427.62 324.87) rotate(-45)"/><polygon class="cls-1" points="285.48 198.86 297.64 223.49 324.83 227.44 305.15 246.62 309.8 273.7 285.48 260.91 261.16 273.7 265.81 246.62 246.14 227.44 273.32 223.49 285.48 198.86"/><path class="cls-1" d="M312.34,610.07,285.48,596l-26.86,14.12,5.13-29.91L242,559l30-4.36,13.43-27.22,13.43,27.22L329,559l-21.74,21.19Zm-26.86-18.46,21.77,11.45-4.16-24.24,17.62-17.17-24.34-3.54-10.89-22.05L274.6,558.11l-24.34,3.54,17.61,17.17-4.16,24.24Z"/><path class="cls-1" d="M645.27,277.2,618.4,263.08,591.54,277.2l5.13-29.91L574.94,226.1l30-4.36,13.43-27.22,13.43,27.22,30,4.36-21.74,21.19Zm-62.09-48.42L600.79,246l-4.16,24.24,21.77-11.45,21.77,11.45L636,246l17.62-17.17-24.34-3.54L618.4,203.19l-10.88,22.05Z"/><polygon class="cls-1" points="618.4 532.28 630.56 556.91 657.75 560.86 638.07 580.04 642.72 607.12 618.4 594.33 594.09 607.12 598.73 580.04 579.06 560.86 606.24 556.91 618.4 532.28"/><polygon class="cls-1" points="952.65 198.86 964.81 223.49 991.99 227.44 972.32 246.62 976.97 273.7 952.65 260.91 928.33 273.7 932.98 246.62 913.3 227.44 940.49 223.49 952.65 198.86"/><polygon class="cls-1" points="112.37 406.59 84.83 376.18 57.29 406.59 71.73 406.59 71.73 462.11 97.93 462.11 97.93 406.59 112.37 406.59"/><polygon class="cls-1" points="444.15 462.11 474.57 434.56 444.15 407.02 444.15 421.46 388.64 421.46 388.64 447.66 444.15 447.66 444.15 462.11"/><polygon class="cls-1" points="87.7 735.53 57.29 763.07 87.7 790.62 87.7 776.17 143.22 776.17 143.22 749.97 87.7 749.97 87.7 735.53"/><polygon class="cls-1" points="443.72 735.1 416.18 704.68 388.64 735.1 403.08 735.1 403.08 790.62 429.28 790.62 429.28 735.1 443.72 735.1"/><polygon class="cls-1" points="723.69 431.71 751.23 462.12 778.77 431.71 764.33 431.71 764.33 376.19 738.13 376.19 738.13 431.71 723.69 431.71"/></svg>