<svg id="Layer_1" data-name="Layer 1" xmlns="http://www.w3.org/2000/svg" viewBox="0 0 1024 1024"><defs><style>.cls-1{fill:#28527a;}</style></defs><title>Q</title><path class="cls-1" d="M994,994H38.14V38.14H994Zm-948.4-7.41h941v-941h-941Z"/><path class="cls-1" d="M716.74,877.2c-100.18,0-181.69-81.5-181.69-181.69s81.51-181.69,181.69-181.69,181.69,81.51,181.69,181.69S816.93,877.2,716.74,877.2Zm0-358.93c-97.73,0-177.24,79.51-177.24,177.24S619,872.76,716.74,872.76,894,793.24,894,695.51,814.48,518.27,716.74,518.27Z"/><path class="cls-1" d="M880.15,331.41H696.24V147.5H880.15ZM700.69,327h175V152h-175Z"/></svg>