<svg id="Layer_1" data-name="Layer 1" xmlns="http://www.w3.org/2000/svg" viewBox="0 0 1024 1024"><defs><style>.cls-1{fill:#28527a;}</style></defs><title>Q</title><path class="cls-1" d="M709.67,867.71c-98.67,0-178.95-80.28-178.95-179S611,509.81,709.67,509.81s179,80.28,179,179S808.35,867.71,709.67,867.71Zm0-353.52c-96.26,0-174.57,78.31-174.57,174.57s78.31,174.57,174.57,174.57S884.24,785,884.24,688.76,805.93,514.19,709.67,514.19Z"/><path class="cls-1" d="M372.59,867.71H191.45V686.57H372.59Zm-176.76-4.38H368.21V691H195.83Z"/><path class="cls-1" d="M982.7,982.7H41.3V41.3H982.7ZM48.6,975.4H975.4V48.6H48.6Z"/></svg>