<svg id="Layer_1" data-name="Layer 1" xmlns="http://www.w3.org/2000/svg" viewBox="0 0 1024 1024"><defs><style>.cls-1{fill:#28527a;}</style></defs><title>Q</title><path class="cls-1" d="M863.59,730.15h-6.93q0-15.42,1.63-24.31a54.91,54.91,0,0,1,4.19-14.06q2.55-5.16,13-18.89,8.25-10.73,11.59-20.2a62.54,62.54,0,0,0,3.33-20.85q0-15.44-8.68-24.84a27.76,27.76,0,0,0-21.21-9.42q-10.85,0-18.09,5.36t-7.24,11q0,3.14,5.1,7.05,7.73,6,7.72,13A14.36,14.36,0,0,1,844,644.44a13.7,13.7,0,0,1-10.25,4.18,15.74,15.74,0,0,1-12.42-5.89q-5.06-5.88-5.06-15.44,0-15,13.87-27t34.94-12q21.6,0,35.67,13.35a43.24,43.24,0,0,1,14.06,32.59,50.1,50.1,0,0,1-4.84,22.24q-3.66,7.47-18.45,20.94-19.25,17.28-23.36,25.52T863.59,730.15Zm-3.14,28.27A15.17,15.17,0,0,1,871.58,763a15,15,0,0,1,4.58,11,16.12,16.12,0,0,1-4.58,11.58,15.41,15.41,0,0,1-22.25.07A16.07,16.07,0,0,1,844.75,774a15,15,0,0,1,4.58-11.06A15.24,15.24,0,0,1,860.45,758.42Z"/><path class="cls-1" d="M327.43,497.87H15.68V186.12H327.43ZM22.2,491.35H320.91V192.64H22.2Z"/><path class="cls-1" d="M327.43,837.88H15.68V526.12H327.43ZM22.2,831.36H320.91V532.65H22.2Z"/><path class="cls-1" d="M667.89,837.88H356.13V526.13H667.89Zm-305.24-6.52H661.36V532.65H362.65Z"/><path class="cls-1" d="M667,497.87H355.24V186.12H667Zm-305.23-6.52H660.48V192.64H361.77Z"/><path class="cls-1" d="M1008.32,497.87H696.57V186.12h311.75Zm-305.23-6.52H1001.8V192.64H703.09Z"/><path class="cls-1" d="M132.83,702.26c0-12.63,8.85-20.37,16.18-23.67-7.6-4.7-12.21-10.63-12.21-20.67,0-16.79,12.28-27.91,34.54-27.91,20.34,0,33.72,10.59,33.72,27.63,0,11.39-5.84,17-12.59,19.85a25.76,25.76,0,0,1,16.12,24.07c0,20.4-16.3,31-38.85,31C149.53,732.51,132.83,721.83,132.83,702.26Zm54.28-1c0-9.8-6.75-14.33-16.39-14.33-10.76,0-16.28,5.82-16.28,14.2,0,8.78,6.59,14.62,16.66,14.62C180.37,715.79,187.11,711.38,187.11,701.3Zm-29.9-42.63c0,6.69,4.79,11.17,13.85,11.17,8.8,0,13.58-3.38,13.58-11.1,0-7.49-4.93-12.14-13.75-12.14C161.83,646.6,157.21,650.84,157.21,658.67Z"/><path class="cls-1" d="M448.62,730.71v-74c-4.58,2.13-12.94,3.87-17.88,4.3V645c9.38-1.73,18.86-7.06,24.53-13.28h15.19v99Z"/><path class="cls-1" d="M541.52,655.89c-1.22-4.88-4-9.55-12.64-9.55-13.25,0-16.7,12.44-17.29,25.74,4.17-5.09,11.18-9.16,22.41-9.16,18.12,0,31,13.35,31,32.8,0,21.11-13.51,36.79-36.3,36.79-28.69,0-38.25-22.09-38.25-50,0-25.74,9.12-52.47,39.43-52.47,21.49,0,31.5,13.46,32.48,25.88Zm2,41.6c0-9.39-3.49-17.83-15.37-17.83-9.61,0-15.25,5.61-15.25,17.07,0,8,3.83,18.66,15.3,18.66C538.63,715.39,543.47,707.5,543.47,697.49Z"/><path class="cls-1" d="M443.92,405.31a63.4,63.4,0,1,1,63.4-63.39A63.47,63.47,0,0,1,443.92,405.31Zm0-124.18a60.79,60.79,0,1,0,60.79,60.79A60.86,60.86,0,0,0,443.92,281.13Z"/><rect class="cls-1" x="442.62" y="279.82" width="2.61" height="124.19"/><rect class="cls-1" x="518" y="340.61" width="28.48" height="2.61"/><rect class="cls-1" x="381.83" y="340.61" width="124.18" height="2.61"/><path class="cls-1" d="M580.09,405.31a63.4,63.4,0,1,1,63.4-63.4A63.47,63.47,0,0,1,580.09,405.31Zm0-124.18a60.79,60.79,0,1,0,60.79,60.78A60.86,60.86,0,0,0,580.09,281.13Z"/><rect class="cls-1" x="578.79" y="279.82" width="2.61" height="124.19"/><rect class="cls-1" x="518" y="340.61" width="124.18" height="2.61"/><rect class="cls-1" x="477.54" y="340.61" width="28.48" height="2.61"/><path class="cls-1" d="M104.09,405.31a63.4,63.4,0,1,1,63.39-63.39A63.47,63.47,0,0,1,104.09,405.31Zm0-124.18a60.79,60.79,0,1,0,60.78,60.79A60.86,60.86,0,0,0,104.09,281.13Z"/><rect class="cls-1" x="102.78" y="279.82" width="2.61" height="124.19"/><path class="cls-1" d="M239.43,405.31a63.4,63.4,0,1,1,63.4-63.39A63.47,63.47,0,0,1,239.43,405.31Zm0-124.18a60.79,60.79,0,1,0,60.79,60.79A60.86,60.86,0,0,0,239.43,281.13Z"/><rect class="cls-1" x="238.13" y="279.82" width="2.61" height="124.19"/><path class="cls-1" d="M783.56,405.31A63.4,63.4,0,1,1,847,341.92,63.47,63.47,0,0,1,783.56,405.31Zm0-124.18a60.79,60.79,0,1,0,60.79,60.79A60.85,60.85,0,0,0,783.56,281.13Z"/><rect class="cls-1" x="782.26" y="279.82" width="2.61" height="124.19"/><rect class="cls-1" x="721.47" y="340.61" width="124.18" height="2.61"/><rect class="cls-1" x="782.26" y="279.83" width="2.61" height="124.18" transform="translate(-12.27 654.21) rotate(-45)"/><rect class="cls-1" x="721.47" y="340.61" width="124.18" height="2.61" transform="translate(-12.25 654.26) rotate(-45)"/><path class="cls-1" d="M921.33,405.31a63.4,63.4,0,1,1,63.39-63.39A63.47,63.47,0,0,1,921.33,405.31Zm0-124.18a60.79,60.79,0,1,0,60.78,60.79A60.86,60.86,0,0,0,921.33,281.13Z"/><rect class="cls-1" x="920.02" y="279.82" width="2.61" height="124.19"/><rect class="cls-1" x="859.24" y="340.61" width="124.18" height="2.61"/><rect class="cls-1" x="920.02" y="279.83" width="2.61" height="124.18" transform="translate(28.08 751.62) rotate(-45)"/><rect class="cls-1" x="859.24" y="340.61" width="124.18" height="2.61" transform="translate(28.11 751.68) rotate(-45)"/></svg>