<svg id="Layer_1" data-name="Layer 1" xmlns="http://www.w3.org/2000/svg" viewBox="0 0 1024 1024"><defs><style>.cls-1{fill:#28527a;}</style></defs><title>Q</title><path class="cls-1" d="M987.26,987.32H36.68V36.74H987.26ZM44.05,980H979.89V44.11H44.05Z"/><path class="cls-1" d="M256.87,648.81v-4.26c0-53.21,23.93-96.49,90.08-144.68,43.14-31.53,56.19-42.43,56.19-69.12,0-26.49-12.85-41.39-38.57-41.39-29.94,0-40.73,18.34-44.95,44.94H255.46c4.4-52.73,38.9-96.67,109.11-96.67C443.1,337.63,470,384.4,470,430.17c0,44.51-19.15,66-75.4,105.52-37.69,26.47-52.83,43.87-58,57.65H481.3L473,648.81Z"/><path class="cls-1" d="M644.5,648.81v-68.7H506.27V522.2l127.54-179h72.4V526.34h36.84l-6.12,53.77H706.21v68.7Zm0-176.87c0-33.13,0-51.59,1.34-70.8-12.13,25.57-51.93,83.79-80.69,125.2H644.5Z"/></svg>